<?xml version="1.0" encoding="utf-8"?>
<!-- Generator: Adobe Illustrator 18.0.0, SVG Export Plug-In . SVG Version: 6.00 Build 0)  -->
<!DOCTYPE svg PUBLIC "-//W3C//DTD SVG 1.1//EN" "http://www.w3.org/Graphics/SVG/1.1/DTD/svg11.dtd">
<svg version="1.1" id="Lager_1" xmlns="http://www.w3.org/2000/svg" xmlns:xlink="http://www.w3.org/1999/xlink" x="0px" y="0px"
	 viewBox="0 0 400 100" enable-background="new 0 0 400 100" xml:space="preserve">
<g>
	<path d="M15.3,55.5c-1.2,0.7-2.6,1.1-4.4,1.1H6.4V40.5h4.1c1.7,0,3,0.3,4.1,0.9c1.1,0.6,1.6,1.7,1.6,3.1c0,1-0.3,1.7-0.9,2.3
		c-0.6,0.6-1.3,1-2.1,1.2c2.5,0.4,3.7,1.7,3.7,3.9C17,53.6,16.4,54.8,15.3,55.5z M13.2,42.9c-0.5-0.4-1.3-0.6-2.3-0.6H8.7v5h2.4
		c1.9,0,2.9-0.8,2.9-2.5C14,43.9,13.7,43.3,13.2,42.9z M13.7,49.8c-0.6-0.4-1.4-0.7-2.4-0.7H8.7v5.6h2.4c2.3,0,3.4-0.9,3.4-2.7
		C14.6,50.9,14.3,50.2,13.7,49.8z"/>
	<path d="M22.7,52.9c0,0.8,0.2,1.3,0.5,1.7c0.3,0.4,0.8,0.5,1.5,0.5c0.6,0,1.2-0.2,1.8-0.5c0.6-0.4,1-0.8,1.4-1.3v-9h2.2v12.3h-1.9
		L28,55c-0.5,0.6-1,1.1-1.7,1.4c-0.7,0.3-1.4,0.5-2.2,0.5c-1.2,0-2-0.3-2.6-0.9c-0.6-0.6-0.9-1.5-0.9-2.7v-8.9h2.2V52.9z"/>
	<path d="M40.7,56.7c-0.5,1.4-1.2,2.6-2,3.4c-0.9,0.8-2.1,1.3-3.7,1.5l-0.3-1.7c0.8-0.1,1.5-0.3,2-0.6c0.5-0.3,0.9-0.6,1.2-1
		c0.3-0.4,0.5-1,0.8-1.6h-0.8l-4.2-12.3H36L39.3,55l3.3-10.6H45L40.7,56.7z"/>
	<path d="M71.2,45.7c0.9,1.1,1.4,2.7,1.4,4.7c0,2-0.5,3.5-1.4,4.7c-0.9,1.2-2.3,1.7-4,1.7c-1.7,0-3.1-0.6-4-1.7
		c-0.9-1.1-1.4-2.7-1.4-4.7c0-2,0.5-3.5,1.4-4.7c0.9-1.2,2.3-1.8,4-1.8S70.3,44.6,71.2,45.7z M65,46.9c-0.5,0.8-0.8,1.9-0.8,3.5
		c0,1.6,0.2,2.7,0.7,3.5c0.5,0.8,1.3,1.1,2.3,1.1c1,0,1.8-0.4,2.3-1.1c0.5-0.8,0.7-1.9,0.7-3.5c0-1.6-0.2-2.7-0.7-3.5
		c-0.5-0.8-1.3-1.1-2.3-1.1C66.2,45.8,65.5,46.2,65,46.9z"/>
	<path d="M86.7,44.3l-0.4,4.3h-1.7v-2.6h0c-1.8,0-3.2,1.3-3.9,4v4.9h2.5v1.7h-6.6v-1.7h1.9v-9h-1.9v-1.7h3.6l0.4,2.9
		c0.5-1.1,1.1-1.8,1.8-2.4c0.7-0.5,1.6-0.8,2.6-0.8C85.5,44,86.1,44.1,86.7,44.3z"/>
	<path d="M114.1,54.6c-0.5,0.7-1.2,1.3-2.1,1.7c-0.9,0.4-2,0.6-3.2,0.6c-1.2,0-2.3-0.2-3.3-0.5c-1-0.4-1.8-0.9-2.5-1.5l1.3-1.5
		c1.2,1.1,2.7,1.7,4.5,1.7c1,0,1.9-0.2,2.5-0.7c0.7-0.5,1-1.2,1-2.1c0-0.5-0.1-0.9-0.3-1.3c-0.2-0.3-0.5-0.7-1-0.9
		c-0.5-0.3-1.2-0.5-2.1-0.8c-1.8-0.5-3.1-1.1-3.9-1.9c-0.8-0.7-1.3-1.7-1.3-2.9c0-0.8,0.2-1.6,0.7-2.2c0.5-0.6,1.1-1.1,1.9-1.5
		c0.8-0.4,1.7-0.5,2.8-0.5c1.1,0,2.1,0.2,2.9,0.5c0.8,0.3,1.6,0.8,2.3,1.4l-1.3,1.4c-1.1-1-2.4-1.4-3.8-1.4c-0.9,0-1.6,0.2-2.2,0.6
		c-0.6,0.4-0.9,0.9-0.9,1.7c0,0.5,0.1,0.8,0.4,1.1c0.2,0.3,0.6,0.6,1.2,0.9c0.6,0.3,1.3,0.5,2.4,0.8c1.5,0.5,2.7,1,3.5,1.7
		c0.8,0.7,1.2,1.8,1.2,3.1C114.8,53,114.6,53.9,114.1,54.6z"/>
	<path d="M121.2,54.1c0.6,0.6,1.5,1,2.4,1c0.6,0,1.1-0.1,1.7-0.3c0.5-0.2,1-0.5,1.6-0.8l1,1.4c-0.6,0.5-1.2,0.8-2,1.1
		c-0.8,0.3-1.5,0.4-2.3,0.4c-1.8,0-3.2-0.6-4.2-1.7c-1-1.2-1.5-2.7-1.5-4.7c0-1.2,0.2-2.3,0.7-3.3c0.4-1,1.1-1.7,1.9-2.3
		c0.8-0.6,1.8-0.8,2.9-0.8c1.6,0,2.8,0.5,3.8,1.6c0.9,1.1,1.4,2.6,1.4,4.5c0,0.4,0,0.7,0,1.1h-8.2C120.2,52.5,120.6,53.5,121.2,54.1
		z M121.2,46.7c-0.6,0.6-0.9,1.6-1,2.9h6.1c0-1.2-0.3-2.2-0.8-2.8c-0.5-0.7-1.2-1-2.1-1C122.5,45.7,121.7,46.1,121.2,46.7z"/>
	<path d="M137.4,53.4c0,1.1,0.7,1.6,2,1.6c0.6,0,1.3-0.1,2-0.4l0.6,1.6c-0.8,0.4-1.8,0.7-3,0.7c-1.2,0-2.1-0.3-2.8-1
		c-0.7-0.6-1-1.5-1-2.6V41.1h-3.7v-1.7h6V53.4z"/>
	<path d="M151.4,53.4c0,1.1,0.7,1.6,2,1.6c0.6,0,1.3-0.1,2-0.4l0.6,1.6c-0.8,0.4-1.8,0.7-3,0.7c-1.2,0-2.1-0.3-2.8-1
		c-0.7-0.6-1-1.5-1-2.6V41.1h-3.7v-1.7h6V53.4z"/>
	<path d="M183.1,53.9l1,1.4c-0.5,0.5-1.2,0.8-1.9,1.1c-0.8,0.3-1.5,0.4-2.3,0.4c-1.8,0-3.3-0.6-4.3-1.7c-1-1.1-1.5-2.7-1.5-4.6
		c0-1.2,0.2-2.4,0.7-3.3c0.5-1,1.1-1.8,2-2.3c0.9-0.6,1.9-0.8,3.1-0.8c1.6,0,3,0.5,4.2,1.5l-1,1.4c-1-0.7-2.1-1.1-3.1-1.1
		c-1.1,0-1.9,0.4-2.6,1.2c-0.6,0.8-0.9,1.9-0.9,3.5c0,1.5,0.3,2.6,0.9,3.4c0.6,0.7,1.5,1.1,2.6,1.1C181,55,182.1,54.6,183.1,53.9z"
		/>
	<path d="M198.5,44.3l-0.4,4.3h-1.7v-2.6h0c-1.8,0-3.2,1.3-3.9,4v4.9h2.5v1.7h-6.6v-1.7h1.9v-9h-1.9v-1.7h3.6l0.4,2.9
		c0.5-1.1,1.1-1.8,1.8-2.4c0.7-0.5,1.6-0.8,2.6-0.8C197.3,44,197.9,44.1,198.5,44.3z"/>
	<path d="M208.4,56.7c-0.5,1.4-1.2,2.6-2,3.4c-0.9,0.8-2.1,1.3-3.7,1.5l-0.3-1.7c0.8-0.1,1.5-0.3,2-0.6c0.5-0.3,0.9-0.6,1.2-1
		c0.3-0.4,0.5-1,0.8-1.6h-0.8l-4.2-12.3h2.4l3.4,10.6l3.3-10.6h2.3L208.4,56.7z"/>
	<path d="M226.4,50.4c0,1.9-0.4,3.5-1.2,4.7c-0.8,1.2-2,1.8-3.5,1.8c-1.3,0-2.4-0.5-3.2-1.4v5.8l-2.2,0.3V44.3h1.9l0.2,1.7
		c0.5-0.6,1-1.1,1.6-1.5c0.6-0.3,1.3-0.5,2-0.5C224.9,44,226.4,46.1,226.4,50.4z M219.8,46.3c-0.5,0.3-0.9,0.8-1.3,1.4v5.9
		c0.3,0.5,0.7,0.8,1.2,1.1c0.5,0.3,0.9,0.4,1.5,0.4c1,0,1.7-0.4,2.2-1.1c0.5-0.8,0.7-1.9,0.7-3.5s-0.2-2.8-0.7-3.5
		c-0.4-0.8-1.1-1.1-2-1.1C220.8,45.8,220.2,45.9,219.8,46.3z"/>
	<path d="M238.6,56.6c-0.6,0.2-1.2,0.2-1.8,0.2c-1.4,0-2.4-0.4-3.1-1c-0.7-0.7-1.1-1.6-1.1-2.8v-7h-2.8v-1.7h2.8v-2.8l2.2-0.3v3h4.2
		l-0.3,1.7h-3.9v7c0,0.7,0.2,1.2,0.5,1.5c0.4,0.3,0.9,0.5,1.7,0.5c0.8,0,1.6-0.2,2.3-0.6l0.8,1.5C239.8,56.2,239.2,56.5,238.6,56.6z
		"/>
	<path d="M253,45.7c0.9,1.1,1.4,2.7,1.4,4.7c0,2-0.5,3.5-1.4,4.7c-0.9,1.2-2.3,1.7-4,1.7c-1.7,0-3.1-0.6-4-1.7
		c-0.9-1.1-1.4-2.7-1.4-4.7c0-2,0.5-3.5,1.4-4.7c0.9-1.2,2.3-1.8,4-1.8S252,44.6,253,45.7z M246.7,46.9c-0.5,0.8-0.8,1.9-0.8,3.5
		c0,1.6,0.2,2.7,0.7,3.5c0.5,0.8,1.3,1.1,2.3,1.1c1,0,1.8-0.4,2.3-1.1c0.5-0.8,0.7-1.9,0.7-3.5c0-1.6-0.2-2.7-0.7-3.5
		c-0.5-0.8-1.3-1.1-2.3-1.1C248,45.8,247.2,46.2,246.7,46.9z"/>
	<path d="M267,53.9l1,1.4c-0.5,0.5-1.2,0.8-1.9,1.1c-0.8,0.3-1.5,0.4-2.3,0.4c-1.8,0-3.3-0.6-4.3-1.7c-1-1.1-1.5-2.7-1.5-4.6
		c0-1.2,0.2-2.4,0.7-3.3c0.5-1,1.1-1.8,2-2.3c0.9-0.6,1.9-0.8,3.1-0.8c1.6,0,3,0.5,4.2,1.5l-1,1.4c-1-0.7-2.1-1.1-3.1-1.1
		c-1.1,0-1.9,0.4-2.6,1.2c-0.6,0.8-0.9,1.9-0.9,3.5c0,1.5,0.3,2.6,0.9,3.4c0.6,0.7,1.5,1.1,2.6,1.1C264.9,55,266,54.6,267,53.9z"/>
	<path d="M274.4,52.9c0,0.8,0.2,1.3,0.5,1.7c0.3,0.4,0.8,0.5,1.5,0.5c0.6,0,1.2-0.2,1.8-0.5c0.6-0.4,1-0.8,1.4-1.3v-9h2.2v12.3h-1.9
		l-0.2-1.6c-0.5,0.6-1,1.1-1.7,1.4c-0.7,0.3-1.4,0.5-2.2,0.5c-1.2,0-2-0.3-2.6-0.9c-0.6-0.6-0.9-1.5-0.9-2.7v-8.9h2.2V52.9z"/>
	<path d="M296.4,44.3l-0.4,4.3h-1.7v-2.6h0c-1.8,0-3.2,1.3-3.9,4v4.9h2.5v1.7h-6.6v-1.7h1.9v-9h-1.9v-1.7h3.6l0.4,2.9
		c0.5-1.1,1.1-1.8,1.8-2.4c0.7-0.5,1.6-0.8,2.6-0.8C295.2,44,295.8,44.1,296.4,44.3z"/>
	<path d="M310.4,44.3l-0.4,4.3h-1.7v-2.6h0c-1.8,0-3.2,1.3-3.9,4v4.9h2.5v1.7h-6.6v-1.7h1.9v-9h-1.9v-1.7h3.6l0.4,2.9
		c0.5-1.1,1.1-1.8,1.8-2.4c0.7-0.5,1.6-0.8,2.6-0.8C309.1,44,309.7,44.1,310.4,44.3z"/>
	<path d="M317,54.1c0.6,0.6,1.5,1,2.4,1c0.6,0,1.1-0.1,1.7-0.3c0.5-0.2,1-0.5,1.6-0.8l1,1.4c-0.6,0.5-1.2,0.8-2,1.1
		c-0.8,0.3-1.5,0.4-2.3,0.4c-1.8,0-3.2-0.6-4.2-1.7c-1-1.2-1.5-2.7-1.5-4.7c0-1.2,0.2-2.3,0.7-3.3c0.4-1,1.1-1.7,1.9-2.3
		c0.8-0.6,1.8-0.8,2.9-0.8c1.6,0,2.8,0.5,3.8,1.6c0.9,1.1,1.4,2.6,1.4,4.5c0,0.4,0,0.7,0,1.1h-8.2C316,52.5,316.3,53.5,317,54.1z
		 M316.9,46.7c-0.6,0.6-0.9,1.6-1,2.9h6.1c0-1.2-0.3-2.2-0.8-2.8c-0.5-0.7-1.2-1-2.1-1C318.2,45.7,317.4,46.1,316.9,46.7z"/>
	<path d="M328.1,44.3h1.9l0.2,1.7c0.5-0.6,1.1-1.1,1.8-1.4c0.7-0.3,1.5-0.5,2.2-0.5c1.1,0,2,0.3,2.6,0.9c0.6,0.6,0.9,1.5,0.9,2.7
		v8.9h-2.2V49c0-0.9,0-1.5-0.1-2c-0.1-0.5-0.3-0.8-0.6-1c-0.3-0.2-0.7-0.3-1.3-0.3c-0.6,0-1.2,0.2-1.8,0.6c-0.6,0.4-1,0.8-1.4,1.4
		v8.9h-2.2V44.3z"/>
	<path d="M350.9,53.9l1,1.4c-0.5,0.5-1.2,0.8-1.9,1.1c-0.8,0.3-1.5,0.4-2.3,0.4c-1.8,0-3.3-0.6-4.3-1.7c-1-1.1-1.5-2.7-1.5-4.6
		c0-1.2,0.2-2.4,0.7-3.3c0.5-1,1.1-1.8,2-2.3c0.9-0.6,1.9-0.8,3.1-0.8c1.6,0,3,0.5,4.2,1.5l-1,1.4c-1-0.7-2.1-1.1-3.1-1.1
		c-1.1,0-1.9,0.4-2.6,1.2c-0.6,0.8-0.9,1.9-0.9,3.5c0,1.5,0.3,2.6,0.9,3.4c0.6,0.7,1.5,1.1,2.6,1.1C348.8,55,349.8,54.6,350.9,53.9z
		"/>
	<path d="M362.5,54.9h3.4v1.7h-9.4v-1.7h3.7V46h-3.6v-1.7h5.8V54.9z M361.9,38.9c0.3,0.3,0.4,0.6,0.4,1.1c0,0.4-0.1,0.8-0.4,1.1
		c-0.3,0.3-0.7,0.4-1.1,0.4c-0.5,0-0.8-0.1-1.1-0.4c-0.3-0.3-0.4-0.6-0.4-1.1c0-0.4,0.1-0.8,0.4-1.1s0.7-0.4,1.1-0.4
		C361.3,38.4,361.6,38.6,361.9,38.9z"/>
	<path d="M372.9,54.1c0.6,0.6,1.5,1,2.4,1c0.6,0,1.1-0.1,1.7-0.3c0.5-0.2,1-0.5,1.6-0.8l1,1.4c-0.6,0.5-1.2,0.8-2,1.1
		c-0.8,0.3-1.5,0.4-2.3,0.4c-1.8,0-3.2-0.6-4.2-1.7c-1-1.2-1.5-2.7-1.5-4.7c0-1.2,0.2-2.3,0.7-3.3c0.4-1,1.1-1.7,1.9-2.3
		c0.8-0.6,1.8-0.8,2.9-0.8c1.6,0,2.8,0.5,3.8,1.6c0.9,1.1,1.4,2.6,1.4,4.5c0,0.4,0,0.7,0,1.1h-8.2C371.9,52.5,372.2,53.5,372.9,54.1
		z M372.8,46.7c-0.6,0.6-0.9,1.6-1,2.9h6.1c0-1.2-0.3-2.2-0.8-2.8c-0.5-0.7-1.2-1-2.1-1C374.1,45.7,373.4,46.1,372.8,46.7z"/>
	<path d="M390.4,54.6c0.5-0.3,0.8-0.8,0.8-1.3c0-0.4-0.1-0.7-0.2-1c-0.1-0.2-0.4-0.5-0.8-0.7c-0.4-0.2-1.1-0.4-1.9-0.6
		c-1.4-0.4-2.4-0.8-3.1-1.3s-1-1.3-1-2.3c0-1,0.4-1.9,1.3-2.5c0.9-0.6,2-0.9,3.4-0.9c1.8,0,3.3,0.5,4.6,1.4l-1,1.5
		c-0.5-0.3-1-0.6-1.6-0.8c-0.6-0.2-1.2-0.3-1.9-0.3c-1.7,0-2.5,0.5-2.5,1.5c0,0.3,0.1,0.6,0.3,0.8c0.2,0.2,0.5,0.4,0.9,0.6
		c0.4,0.2,1.1,0.4,2,0.6c1.3,0.4,2.3,0.8,3,1.4c0.7,0.6,1,1.4,1,2.4c0,1.2-0.5,2.2-1.5,2.8c-1,0.6-2.3,0.9-3.8,0.9
		c-2,0-3.6-0.6-4.9-1.7l1.2-1.4c0.5,0.4,1.1,0.7,1.7,1c0.6,0.2,1.3,0.3,2,0.3C389.2,55.1,389.9,54.9,390.4,54.6z"/>
</g>
<g>
</g>
<g>
</g>
<g>
</g>
<g>
</g>
<g>
</g>
<g>
</g>
</svg>
