<?xml version="1.0" encoding="utf-8"?>
<!-- Generator: Adobe Illustrator 18.0.0, SVG Export Plug-In . SVG Version: 6.00 Build 0)  -->
<!DOCTYPE svg PUBLIC "-//W3C//DTD SVG 1.1//EN" "http://www.w3.org/Graphics/SVG/1.1/DTD/svg11.dtd">
<svg version="1.1" id="Lager_1" xmlns="http://www.w3.org/2000/svg" xmlns:xlink="http://www.w3.org/1999/xlink" x="0px" y="0px"
	 viewBox="0 0 400 100" enable-background="new 0 0 400 100" xml:space="preserve">
<g>
	<path d="M57.3,54.2c-0.9,0.6-2,0.8-3.4,0.8h-3.5V42.7h3.2c1.3,0,2.3,0.2,3.2,0.7c0.8,0.5,1.3,1.3,1.3,2.4c0,0.7-0.2,1.3-0.7,1.8
		c-0.4,0.5-1,0.8-1.6,0.9c1.9,0.3,2.8,1.3,2.8,3C58.6,52.8,58.2,53.7,57.3,54.2z M55.7,44.5c-0.4-0.3-1-0.5-1.8-0.5h-1.7v3.8h1.8
		c1.5,0,2.2-0.7,2.2-2C56.3,45.3,56.1,44.8,55.7,44.5z M56.1,49.8c-0.5-0.3-1.1-0.5-1.9-0.5h-2v4.3h1.9c1.8,0,2.6-0.7,2.6-2.1
		C56.8,50.7,56.5,50.1,56.1,49.8z"/>
	<path d="M63.1,52.3c0,0.6,0.1,1,0.4,1.3c0.2,0.3,0.6,0.4,1.1,0.4c0.5,0,0.9-0.1,1.4-0.4c0.4-0.3,0.8-0.6,1.1-1v-6.9h1.7v9.5h-1.5
		l-0.1-1.3c-0.4,0.5-0.8,0.8-1.4,1.1s-1.1,0.4-1.7,0.4c-0.9,0-1.6-0.2-2-0.7c-0.5-0.5-0.7-1.2-0.7-2.1v-6.9h1.7V52.3z"/>
	<path d="M76.9,55.1c-0.4,1.1-0.9,2-1.6,2.6c-0.7,0.6-1.6,1-2.8,1.2l-0.2-1.3c0.6-0.1,1.1-0.3,1.5-0.5c0.4-0.2,0.7-0.5,0.9-0.8
		c0.2-0.3,0.4-0.7,0.6-1.3h-0.6l-3.3-9.5h1.8l2.6,8.2l2.6-8.2h1.8L76.9,55.1z"/>
	<path d="M100.5,46.7c0.7,0.9,1.1,2.1,1.1,3.6c0,1.5-0.4,2.7-1.1,3.6c-0.7,0.9-1.8,1.3-3.1,1.3c-1.3,0-2.4-0.4-3.1-1.3
		c-0.7-0.9-1.1-2.1-1.1-3.6c0-1.5,0.4-2.7,1.1-3.6c0.7-0.9,1.8-1.4,3.1-1.4S99.8,45.8,100.5,46.7z M95.7,47.6
		c-0.4,0.6-0.6,1.5-0.6,2.7c0,1.2,0.2,2.1,0.6,2.7s1,0.9,1.8,0.9s1.4-0.3,1.8-0.9s0.6-1.5,0.6-2.7c0-1.2-0.2-2.1-0.6-2.7
		c-0.4-0.6-1-0.9-1.7-0.9C96.7,46.8,96.1,47,95.7,47.6z"/>
	<path d="M112.5,45.6l-0.3,3.3h-1.3v-2h0c-1.4,0-2.4,1-3,3.1v3.8h1.9v1.3h-5.1v-1.3h1.5v-6.9h-1.5v-1.3h2.8l0.3,2.2
		c0.4-0.8,0.8-1.4,1.4-1.8c0.5-0.4,1.2-0.6,2-0.6C111.5,45.4,112,45.5,112.5,45.6z"/>
	<path d="M133.6,53.5c-0.4,0.6-0.9,1-1.6,1.3c-0.7,0.3-1.5,0.5-2.5,0.5c-0.9,0-1.8-0.1-2.5-0.4s-1.4-0.7-1.9-1.2l1-1.2
		c0.9,0.9,2.1,1.3,3.4,1.3c0.8,0,1.4-0.2,2-0.6c0.5-0.4,0.8-0.9,0.8-1.6c0-0.4-0.1-0.7-0.2-1c-0.2-0.3-0.4-0.5-0.8-0.7
		c-0.4-0.2-0.9-0.4-1.6-0.6c-1.4-0.4-2.4-0.9-3-1.4c-0.7-0.5-1-1.3-1-2.2c0-0.6,0.2-1.2,0.5-1.7c0.3-0.5,0.8-0.9,1.5-1.2
		c0.6-0.3,1.3-0.4,2.1-0.4c0.8,0,1.6,0.1,2.2,0.4c0.7,0.2,1.3,0.6,1.8,1.1l-1,1.1c-0.9-0.7-1.8-1.1-3-1.1c-0.7,0-1.3,0.1-1.7,0.4
		c-0.4,0.3-0.7,0.7-0.7,1.3c0,0.3,0.1,0.6,0.3,0.9c0.2,0.2,0.5,0.5,0.9,0.7c0.4,0.2,1,0.4,1.8,0.6c1.2,0.3,2.1,0.8,2.7,1.4
		c0.6,0.6,0.9,1.4,0.9,2.4C134.2,52.3,134,53,133.6,53.5z"/>
	<path d="M139.2,53.2c0.5,0.5,1.1,0.7,1.9,0.7c0.5,0,0.9-0.1,1.3-0.2c0.4-0.1,0.8-0.4,1.2-0.6l0.8,1.1c-0.4,0.4-1,0.6-1.5,0.8
		s-1.2,0.3-1.8,0.3c-1.4,0-2.5-0.5-3.3-1.3c-0.8-0.9-1.2-2.1-1.2-3.6c0-1,0.2-1.8,0.5-2.6s0.8-1.3,1.5-1.8c0.6-0.4,1.4-0.6,2.2-0.6
		c1.2,0,2.2,0.4,2.9,1.3c0.7,0.8,1.1,2,1.1,3.4c0,0.3,0,0.6,0,0.9h-6.4C138.4,51.9,138.7,52.7,139.2,53.2z M139.1,47.5
		c-0.4,0.5-0.7,1.2-0.7,2.2h4.7c0-0.9-0.2-1.7-0.6-2.2c-0.4-0.5-1-0.8-1.6-0.8C140.1,46.7,139.5,47,139.1,47.5z"/>
	<path d="M151.6,52.6c0,0.8,0.5,1.2,1.5,1.2c0.5,0,1-0.1,1.6-0.3l0.4,1.2c-0.6,0.3-1.4,0.5-2.3,0.5c-0.9,0-1.6-0.2-2.1-0.7
		c-0.5-0.5-0.8-1.2-0.8-2v-9.4H147v-1.3h4.6V52.6z"/>
	<path d="M162.4,52.6c0,0.8,0.5,1.2,1.5,1.2c0.5,0,1-0.1,1.6-0.3l0.4,1.2c-0.6,0.3-1.4,0.5-2.3,0.5c-0.9,0-1.6-0.2-2.1-0.7
		c-0.5-0.5-0.8-1.2-0.8-2v-9.4h-2.9v-1.3h4.6V52.6z"/>
	<path d="M187,53l0.8,1.1c-0.4,0.3-0.9,0.6-1.5,0.8c-0.6,0.2-1.2,0.3-1.8,0.3c-1.4,0-2.5-0.4-3.3-1.3s-1.2-2.1-1.2-3.6
		c0-1,0.2-1.8,0.5-2.6c0.4-0.8,0.9-1.4,1.6-1.8c0.7-0.4,1.5-0.6,2.4-0.6c1.2,0,2.3,0.4,3.2,1.1l-0.8,1.1c-0.8-0.6-1.6-0.8-2.4-0.8
		c-0.8,0-1.5,0.3-2,0.9c-0.5,0.6-0.7,1.5-0.7,2.7c0,1.2,0.2,2,0.7,2.6c0.5,0.6,1.1,0.8,2,0.8C185.4,53.8,186.2,53.6,187,53z"/>
	<path d="M198.9,45.6l-0.3,3.3h-1.3v-2h0c-1.4,0-2.4,1-3,3.1v3.8h1.9v1.3H191v-1.3h1.5v-6.9H191v-1.3h2.8l0.3,2.2
		c0.4-0.8,0.8-1.4,1.4-1.8c0.5-0.4,1.2-0.6,2-0.6C197.9,45.4,198.4,45.5,198.9,45.6z"/>
	<path d="M206.5,55.1c-0.4,1.1-0.9,2-1.6,2.6c-0.7,0.6-1.6,1-2.8,1.2l-0.2-1.3c0.6-0.1,1.1-0.3,1.5-0.5c0.4-0.2,0.7-0.5,0.9-0.8
		c0.2-0.3,0.4-0.7,0.6-1.3h-0.6l-3.3-9.5h1.8l2.6,8.2l2.6-8.2h1.8L206.5,55.1z"/>
	<path d="M220.4,50.3c0,1.5-0.3,2.7-0.9,3.6s-1.5,1.4-2.7,1.4c-1,0-1.8-0.4-2.5-1.1v4.5l-1.7,0.2V45.6h1.5l0.1,1.3
		c0.3-0.5,0.8-0.9,1.3-1.1c0.5-0.3,1-0.4,1.6-0.4C219.3,45.4,220.4,47,220.4,50.3z M215.3,47.1c-0.4,0.3-0.7,0.6-1,1.1v4.6
		c0.3,0.4,0.6,0.6,0.9,0.8c0.3,0.2,0.7,0.3,1.2,0.3c0.7,0,1.3-0.3,1.7-0.9s0.6-1.5,0.6-2.7s-0.2-2.1-0.5-2.7
		c-0.3-0.6-0.9-0.9-1.5-0.9C216.1,46.7,215.6,46.9,215.3,47.1z"/>
	<path d="M229.8,55.1c-0.5,0.1-0.9,0.2-1.4,0.2c-1,0-1.9-0.3-2.4-0.8c-0.6-0.5-0.9-1.3-0.9-2.2v-5.4H223v-1.3h2.1v-2.1l1.7-0.2v2.3
		h3.3l-0.2,1.3h-3v5.4c0,0.5,0.1,0.9,0.4,1.2c0.3,0.3,0.7,0.4,1.3,0.4c0.6,0,1.2-0.2,1.8-0.5l0.6,1.2
		C230.7,54.8,230.3,55,229.8,55.1z"/>
	<path d="M240.9,46.7c0.7,0.9,1.1,2.1,1.1,3.6c0,1.5-0.4,2.7-1.1,3.6c-0.7,0.9-1.8,1.3-3.1,1.3c-1.3,0-2.4-0.4-3.1-1.3
		c-0.7-0.9-1.1-2.1-1.1-3.6c0-1.5,0.4-2.7,1.1-3.6c0.7-0.9,1.8-1.4,3.1-1.4S240.2,45.8,240.9,46.7z M236.1,47.6
		c-0.4,0.6-0.6,1.5-0.6,2.7c0,1.2,0.2,2.1,0.6,2.7s1,0.9,1.8,0.9s1.4-0.3,1.8-0.9s0.6-1.5,0.6-2.7c0-1.2-0.2-2.1-0.6-2.7
		c-0.4-0.6-1-0.9-1.7-0.9C237.1,46.8,236.5,47,236.1,47.6z"/>
	<path d="M251.8,53l0.8,1.1c-0.4,0.3-0.9,0.6-1.5,0.8c-0.6,0.2-1.2,0.3-1.8,0.3c-1.4,0-2.5-0.4-3.3-1.3s-1.2-2.1-1.2-3.6
		c0-1,0.2-1.8,0.5-2.6c0.4-0.8,0.9-1.4,1.6-1.8c0.7-0.4,1.5-0.6,2.4-0.6c1.2,0,2.3,0.4,3.2,1.1l-0.8,1.1c-0.8-0.6-1.6-0.8-2.4-0.8
		c-0.8,0-1.5,0.3-2,0.9c-0.5,0.6-0.7,1.5-0.7,2.7c0,1.2,0.2,2,0.7,2.6c0.5,0.6,1.1,0.8,2,0.8C250.2,53.8,251,53.6,251.8,53z"/>
	<path d="M257.5,52.3c0,0.6,0.1,1,0.4,1.3c0.2,0.3,0.6,0.4,1.1,0.4c0.5,0,0.9-0.1,1.4-0.4c0.4-0.3,0.8-0.6,1.1-1v-6.9h1.7v9.5h-1.5
		l-0.1-1.3c-0.4,0.5-0.8,0.8-1.3,1.1s-1.1,0.4-1.7,0.4c-0.9,0-1.6-0.2-2-0.7c-0.5-0.5-0.7-1.2-0.7-2.1v-6.9h1.7V52.3z"/>
	<path d="M274.5,45.6l-0.3,3.3h-1.3v-2h0c-1.4,0-2.4,1-3,3.1v3.8h1.9v1.3h-5.1v-1.3h1.5v-6.9h-1.5v-1.3h2.8l0.3,2.2
		c0.4-0.8,0.8-1.4,1.4-1.8c0.5-0.4,1.2-0.6,2-0.6C273.5,45.4,274,45.5,274.5,45.6z"/>
	<path d="M285.3,45.6l-0.3,3.3h-1.3v-2h0c-1.4,0-2.4,1-3,3.1v3.8h1.9v1.3h-5.1v-1.3h1.5v-6.9h-1.5v-1.3h2.8l0.3,2.2
		c0.4-0.8,0.8-1.4,1.4-1.8c0.5-0.4,1.2-0.6,2-0.6C284.3,45.4,284.8,45.5,285.3,45.6z"/>
	<path d="M290.4,53.2c0.5,0.5,1.1,0.7,1.9,0.7c0.5,0,0.9-0.1,1.3-0.2c0.4-0.1,0.8-0.4,1.2-0.6l0.8,1.1c-0.4,0.4-1,0.6-1.5,0.8
		s-1.2,0.3-1.8,0.3c-1.4,0-2.5-0.5-3.3-1.3c-0.8-0.9-1.2-2.1-1.2-3.6c0-1,0.2-1.8,0.5-2.6s0.8-1.3,1.5-1.8c0.6-0.4,1.4-0.6,2.2-0.6
		c1.2,0,2.2,0.4,2.9,1.3c0.7,0.8,1.1,2,1.1,3.4c0,0.3,0,0.6,0,0.9h-6.4C289.6,51.9,289.9,52.7,290.4,53.2z M290.3,47.5
		c-0.4,0.5-0.7,1.2-0.7,2.2h4.7c0-0.9-0.2-1.7-0.6-2.2c-0.4-0.5-1-0.8-1.6-0.8C291.3,46.7,290.7,47,290.3,47.5z"/>
	<path d="M298.9,45.6h1.5l0.1,1.3c0.4-0.5,0.9-0.9,1.4-1.1c0.6-0.3,1.1-0.4,1.7-0.4c0.9,0,1.6,0.2,2,0.7c0.4,0.5,0.7,1.2,0.7,2.1
		v6.9h-1.7v-5.8c0-0.7,0-1.2-0.1-1.5c-0.1-0.3-0.2-0.6-0.4-0.8c-0.2-0.2-0.5-0.3-1-0.3c-0.5,0-0.9,0.1-1.4,0.4
		c-0.4,0.3-0.8,0.7-1.1,1.1v6.9h-1.7V45.6z"/>
	<path d="M316.6,53l0.8,1.1c-0.4,0.3-0.9,0.6-1.5,0.8c-0.6,0.2-1.2,0.3-1.8,0.3c-1.4,0-2.5-0.4-3.3-1.3s-1.2-2.1-1.2-3.6
		c0-1,0.2-1.8,0.5-2.6c0.4-0.8,0.9-1.4,1.6-1.8c0.7-0.4,1.5-0.6,2.4-0.6c1.2,0,2.3,0.4,3.2,1.1l-0.8,1.1c-0.8-0.6-1.6-0.8-2.4-0.8
		c-0.8,0-1.5,0.3-2,0.9c-0.5,0.6-0.7,1.5-0.7,2.7c0,1.2,0.2,2,0.7,2.6c0.5,0.6,1.1,0.8,2,0.8C315,53.8,315.8,53.6,316.6,53z"/>
	<path d="M325.5,53.8h2.6v1.3h-7.3v-1.3h2.9v-6.9H321v-1.3h4.5V53.8z M325.1,41.4c0.2,0.2,0.3,0.5,0.3,0.8c0,0.3-0.1,0.6-0.3,0.8
		c-0.2,0.2-0.5,0.3-0.9,0.3c-0.3,0-0.6-0.1-0.9-0.3s-0.3-0.5-0.3-0.8c0-0.3,0.1-0.6,0.3-0.8s0.5-0.3,0.9-0.3
		C324.6,41.1,324.9,41.2,325.1,41.4z"/>
	<path d="M333.6,53.2c0.5,0.5,1.1,0.7,1.9,0.7c0.5,0,0.9-0.1,1.3-0.2c0.4-0.1,0.8-0.4,1.2-0.6l0.8,1.1c-0.4,0.4-1,0.6-1.5,0.8
		s-1.2,0.3-1.8,0.3c-1.4,0-2.5-0.5-3.3-1.3c-0.8-0.9-1.2-2.1-1.2-3.6c0-1,0.2-1.8,0.5-2.6s0.8-1.3,1.5-1.8c0.6-0.4,1.4-0.6,2.2-0.6
		c1.2,0,2.2,0.4,2.9,1.3c0.7,0.8,1.1,2,1.1,3.4c0,0.3,0,0.6,0,0.9h-6.4C332.8,51.9,333.1,52.7,333.6,53.2z M333.5,47.5
		c-0.4,0.5-0.7,1.2-0.7,2.2h4.7c0-0.9-0.2-1.7-0.6-2.2c-0.4-0.5-1-0.8-1.6-0.8C334.5,46.7,333.9,47,333.5,47.5z"/>
	<path d="M347.1,53.6c0.4-0.3,0.6-0.6,0.6-1c0-0.3-0.1-0.5-0.2-0.7c-0.1-0.2-0.3-0.4-0.6-0.5c-0.3-0.2-0.8-0.3-1.5-0.5
		c-1.1-0.3-1.9-0.6-2.4-1s-0.8-1-0.8-1.7c0-0.8,0.3-1.4,1-1.9c0.7-0.5,1.6-0.7,2.7-0.7c1.4,0,2.6,0.4,3.5,1.1l-0.8,1.1
		c-0.4-0.3-0.8-0.5-1.2-0.6s-0.9-0.2-1.5-0.2c-1.3,0-1.9,0.4-1.9,1.2c0,0.3,0.1,0.5,0.2,0.6c0.1,0.2,0.4,0.3,0.7,0.5
		c0.3,0.1,0.8,0.3,1.5,0.5c1,0.3,1.8,0.6,2.3,1.1c0.5,0.4,0.8,1.1,0.8,1.9c0,1-0.4,1.7-1.2,2.2c-0.8,0.5-1.8,0.7-2.9,0.7
		c-1.5,0-2.8-0.4-3.8-1.3l0.9-1.1c0.4,0.3,0.8,0.6,1.3,0.8c0.5,0.2,1,0.3,1.5,0.3C346.2,53.9,346.7,53.8,347.1,53.6z"/>
</g>
<g>
</g>
<g>
</g>
<g>
</g>
<g>
</g>
<g>
</g>
<g>
</g>
</svg>
